<svg width="59" height="63" viewBox="0 0 59 63" fill="none" xmlns="http://www.w3.org/2000/svg">
<g filter="url(#filter0_d_621_22)">
<path fill-rule="evenodd" clip-rule="evenodd" d="M29.4531 3.92752L28.7326 8.80087C27.32 18.3548 18.6453 25.9852 7.4121 27.5574C18.6453 29.1296 27.32 36.76 28.7326 46.3139L29.4531 51.1873L30.1737 46.3139C31.5862 36.76 40.2609 29.1296 51.4942 27.5574C40.261 25.9852 31.5862 18.3548 30.1737 8.80086L29.4531 3.92752ZM27.8371 8.70622L29.0054 0.804565L29.9009 0.804565L31.0691 8.70622C32.4329 17.9305 40.8127 25.2965 51.6613 26.8074L54.3438 27.181L54.3438 27.9338L51.6613 28.3074C40.8127 29.8182 32.433 37.1843 31.0691 46.4085L29.9009 54.3102H29.0054L27.8371 46.4086C26.4733 37.1843 18.0936 29.8182 7.24494 28.3074L4.5625 27.9338L4.5625 27.181L7.24495 26.8074C18.0936 25.2965 26.4733 17.9305 27.8371 8.70622Z" fill="#692C0F"/>
<path fill-rule="evenodd" clip-rule="evenodd" d="M29.4531 3.92752L28.7326 8.80087C27.32 18.3548 18.6453 25.9852 7.4121 27.5574C18.6453 29.1296 27.32 36.76 28.7326 46.3139L29.4531 51.1873L30.1737 46.3139C31.5862 36.76 40.2609 29.1296 51.4942 27.5574C40.261 25.9852 31.5862 18.3548 30.1737 8.80086L29.4531 3.92752ZM27.8371 8.70622L29.0054 0.804565L29.9009 0.804565L31.0691 8.70622C32.4329 17.9305 40.8127 25.2965 51.6613 26.8074L54.3438 27.181L54.3438 27.9338L51.6613 28.3074C40.8127 29.8182 32.433 37.1843 31.0691 46.4085L29.9009 54.3102H29.0054L27.8371 46.4086C26.4733 37.1843 18.0936 29.8182 7.24494 28.3074L4.5625 27.9338L4.5625 27.181L7.24495 26.8074C18.0936 25.2965 26.4733 17.9305 27.8371 8.70622Z" fill="black" fill-opacity="0.3"/>
<path fill-rule="evenodd" clip-rule="evenodd" d="M17.2422 42.7433C21.9616 40.2434 27.8466 36.1994 33.7605 31.1992C39.6743 26.1991 44.4574 21.2234 47.4141 17.2331C48.8965 15.2327 49.8925 13.5161 50.3572 12.19C50.5896 11.5265 50.675 10.9997 50.6481 10.6047C50.6216 10.2159 50.4922 10.0064 50.3518 9.8877C50.2114 9.76899 49.9636 9.65956 49.5038 9.63718C49.0366 9.61444 48.4135 9.68657 47.6288 9.88315C46.0603 10.276 44.0301 11.1181 41.6641 12.3714C36.9446 14.8714 31.0596 18.9154 25.1458 23.9156C19.2319 28.9157 14.4489 33.8914 11.4921 37.8817C10.0098 39.8821 9.01375 41.5987 8.54909 42.9248C8.3166 43.5883 8.23128 44.1151 8.25818 44.5101C8.28465 44.8989 8.41408 45.1084 8.55448 45.2271C8.69489 45.3458 8.94264 45.4552 9.40246 45.4776C9.86967 45.5004 10.4927 45.4282 11.2775 45.2316C12.8459 44.8388 14.8762 43.9966 17.2422 42.7433ZM7.91636 45.7666C10.6477 48.0759 22.5042 41.7954 34.3986 31.7388C46.293 21.6821 53.7212 11.6575 50.9899 9.34817C48.2586 7.03886 36.4021 13.3193 24.5076 23.376C12.6132 33.4327 5.18505 43.4573 7.91636 45.7666Z" fill="#692C0F"/>
<path fill-rule="evenodd" clip-rule="evenodd" d="M17.2422 42.7433C21.9616 40.2434 27.8466 36.1994 33.7605 31.1992C39.6743 26.1991 44.4574 21.2234 47.4141 17.2331C48.8965 15.2327 49.8925 13.5161 50.3572 12.19C50.5896 11.5265 50.675 10.9997 50.6481 10.6047C50.6216 10.2159 50.4922 10.0064 50.3518 9.8877C50.2114 9.76899 49.9636 9.65956 49.5038 9.63718C49.0366 9.61444 48.4135 9.68657 47.6288 9.88315C46.0603 10.276 44.0301 11.1181 41.6641 12.3714C36.9446 14.8714 31.0596 18.9154 25.1458 23.9156C19.2319 28.9157 14.4489 33.8914 11.4921 37.8817C10.0098 39.8821 9.01375 41.5987 8.54909 42.9248C8.3166 43.5883 8.23128 44.1151 8.25818 44.5101C8.28465 44.8989 8.41408 45.1084 8.55448 45.2271C8.69489 45.3458 8.94264 45.4552 9.40246 45.4776C9.86967 45.5004 10.4927 45.4282 11.2775 45.2316C12.8459 44.8388 14.8762 43.9966 17.2422 42.7433ZM7.91636 45.7666C10.6477 48.0759 22.5042 41.7954 34.3986 31.7388C46.293 21.6821 53.7212 11.6575 50.9899 9.34817C48.2586 7.03886 36.4021 13.3193 24.5076 23.376C12.6132 33.4327 5.18505 43.4573 7.91636 45.7666Z" fill="black" fill-opacity="0.3"/>
<path fill-rule="evenodd" clip-rule="evenodd" d="M11.4921 17.2331C14.4489 21.2234 19.2319 26.1991 25.1458 31.1993C31.0596 36.1994 36.9446 40.2434 41.6641 42.7434C44.0301 43.9967 46.0603 44.8388 47.6288 45.2317C48.4135 45.4282 49.0366 45.5004 49.5038 45.4776C49.9636 45.4552 50.2114 45.3458 50.3518 45.2271C50.4922 45.1084 50.6216 44.8989 50.6481 44.5101C50.675 44.1151 50.5897 43.5884 50.3572 42.9248C49.8925 41.5987 48.8965 39.8822 47.4141 37.8817C44.4574 33.8914 39.6743 28.9157 33.7605 23.9156C27.8466 18.9154 21.9616 14.8714 17.2422 12.3715C14.8762 11.1182 12.8459 10.276 11.2775 9.88317C10.4927 9.68659 9.86967 9.61446 9.40247 9.6372C8.94265 9.65958 8.6949 9.76901 8.55449 9.88773C8.41408 10.0064 8.28465 10.2159 8.25818 10.6047C8.23128 10.9997 8.3166 11.5265 8.5491 12.19C9.01376 13.5161 10.0098 15.2327 11.4921 17.2331ZM7.91636 9.3482C5.18505 11.6575 12.6132 21.6821 24.5076 31.7388C36.4021 41.7955 48.2586 48.0759 50.9899 45.7666C53.7212 43.4573 46.293 33.4327 34.3986 23.376C22.5042 13.3194 10.6477 7.03888 7.91636 9.3482Z" fill="#692C0F"/>
<path fill-rule="evenodd" clip-rule="evenodd" d="M11.4921 17.2331C14.4489 21.2234 19.2319 26.1991 25.1458 31.1993C31.0596 36.1994 36.9446 40.2434 41.6641 42.7434C44.0301 43.9967 46.0603 44.8388 47.6288 45.2317C48.4135 45.4282 49.0366 45.5004 49.5038 45.4776C49.9636 45.4552 50.2114 45.3458 50.3518 45.2271C50.4922 45.1084 50.6216 44.8989 50.6481 44.5101C50.675 44.1151 50.5897 43.5884 50.3572 42.9248C49.8925 41.5987 48.8965 39.8822 47.4141 37.8817C44.4574 33.8914 39.6743 28.9157 33.7605 23.9156C27.8466 18.9154 21.9616 14.8714 17.2422 12.3715C14.8762 11.1182 12.8459 10.276 11.2775 9.88317C10.4927 9.68659 9.86967 9.61446 9.40247 9.6372C8.94265 9.65958 8.6949 9.76901 8.55449 9.88773C8.41408 10.0064 8.28465 10.2159 8.25818 10.6047C8.23128 10.9997 8.3166 11.5265 8.5491 12.19C9.01376 13.5161 10.0098 15.2327 11.4921 17.2331ZM7.91636 9.3482C5.18505 11.6575 12.6132 21.6821 24.5076 31.7388C36.4021 41.7955 48.2586 48.0759 50.9899 45.7666C53.7212 43.4573 46.293 33.4327 34.3986 23.376C22.5042 13.3194 10.6477 7.03888 7.91636 9.3482Z" fill="black" fill-opacity="0.3"/>
</g>
<defs>
<filter id="filter0_d_621_22" x="0.5625" y="0.804565" width="57.7812" height="61.5056" filterUnits="userSpaceOnUse" color-interpolation-filters="sRGB">
<feFlood flood-opacity="0" result="BackgroundImageFix"/>
<feColorMatrix in="SourceAlpha" type="matrix" values="0 0 0 0 0 0 0 0 0 0 0 0 0 0 0 0 0 0 127 0" result="hardAlpha"/>
<feOffset dy="4"/>
<feGaussianBlur stdDeviation="2"/>
<feComposite in2="hardAlpha" operator="out"/>
<feColorMatrix type="matrix" values="0 0 0 0 0 0 0 0 0 0 0 0 0 0 0 0 0 0 0.25 0"/>
<feBlend mode="normal" in2="BackgroundImageFix" result="effect1_dropShadow_621_22"/>
<feBlend mode="normal" in="SourceGraphic" in2="effect1_dropShadow_621_22" result="shape"/>
</filter>
</defs>
</svg>
