<svg width="56" height="49" viewBox="0 0 56 49" fill="none" xmlns="http://www.w3.org/2000/svg">
<g filter="url(#filter0_d_988_106)">
<path d="M12 26.5C14.2 26.5 16 24.7 16 22.5C16 20.3 14.2 18.5 12 18.5C9.8 18.5 8 20.3 8 22.5C8 24.7 9.8 26.5 12 26.5ZM14.26 28.7C13.52 28.58 12.78 28.5 12 28.5C10.02 28.5 8.14 28.92 6.44 29.66C4.96 30.3 4 31.74 4 33.36V36.5H13V33.28C13 31.62 13.46 30.06 14.26 28.7ZM44 26.5C46.2 26.5 48 24.7 48 22.5C48 20.3 46.2 18.5 44 18.5C41.8 18.5 40 20.3 40 22.5C40 24.7 41.8 26.5 44 26.5ZM52 33.36C52 31.74 51.04 30.3 49.56 29.66C47.86 28.92 45.98 28.5 44 28.5C43.22 28.5 42.48 28.58 41.74 28.7C42.54 30.06 43 31.62 43 33.28V36.5H52V33.36ZM36.48 27.8C34.14 26.76 31.26 26 28 26C24.74 26 21.86 26.78 19.52 27.8C17.36 28.76 16 30.92 16 33.28V36.5H40V33.28C40 30.92 38.64 28.76 36.48 27.8ZM20.14 32.5C20.32 32.04 20.4 31.72 21.96 31.12C23.9 30.36 25.94 30 28 30C30.06 30 32.1 30.36 34.04 31.12C35.58 31.72 35.66 32.04 35.86 32.5H20.14ZM28 16.5C29.1 16.5 30 17.4 30 18.5C30 19.6 29.1 20.5 28 20.5C26.9 20.5 26 19.6 26 18.5C26 17.4 26.9 16.5 28 16.5ZM28 12.5C24.68 12.5 22 15.18 22 18.5C22 21.82 24.68 24.5 28 24.5C31.32 24.5 34 21.82 34 18.5C34 15.18 31.32 12.5 28 12.5Z" fill="white"/>
</g>
<defs>
<filter id="filter0_d_988_106" x="0" y="0.5" width="56" height="56" filterUnits="userSpaceOnUse" color-interpolation-filters="sRGB">
<feFlood flood-opacity="0" result="BackgroundImageFix"/>
<feColorMatrix in="SourceAlpha" type="matrix" values="0 0 0 0 0 0 0 0 0 0 0 0 0 0 0 0 0 0 127 0" result="hardAlpha"/>
<feOffset dy="4"/>
<feGaussianBlur stdDeviation="2"/>
<feComposite in2="hardAlpha" operator="out"/>
<feColorMatrix type="matrix" values="0 0 0 0 0 0 0 0 0 0 0 0 0 0 0 0 0 0 0.25 0"/>
<feBlend mode="normal" in2="BackgroundImageFix" result="effect1_dropShadow_988_106"/>
<feBlend mode="normal" in="SourceGraphic" in2="effect1_dropShadow_988_106" result="shape"/>
</filter>
</defs>
</svg>
