<svg width="50" height="50" viewBox="0 0 50 50" fill="none" xmlns="http://www.w3.org/2000/svg">
<circle cx="25" cy="25" r="25" transform="matrix(-1 0 0 1 50 0)" fill="#692C0F"/>
<path d="M14.3196 26.2663C13.9186 25.8865 13.9015 25.2535 14.2813 24.8526L20.471 18.319C20.8509 17.9181 21.4838 17.901 21.8847 18.2808C22.2857 18.6606 22.3028 19.2936 21.923 19.6945L16.421 25.5021L22.2286 31.0041C22.6296 31.3839 22.6467 32.0169 22.2668 32.4178C21.887 32.8187 21.2541 32.8358 20.8531 32.456L14.3196 26.2663ZM35.027 25.9996L15.0343 26.54L14.9803 24.5407L34.973 24.0004L35.027 25.9996Z" fill="white"/>
</svg>
