<svg width="58" height="62" viewBox="0 0 58 62" fill="none" xmlns="http://www.w3.org/2000/svg">
<g filter="url(#filter0_d_966_23)">
<path fill-rule="evenodd" clip-rule="evenodd" d="M28.8906 3.12295L28.1701 7.9963C26.7575 17.5502 18.0828 25.1806 6.8496 26.7528C18.0828 28.325 26.7575 35.9554 28.1701 45.5093L28.8906 50.3827L29.6112 45.5093C31.0237 35.9554 39.6984 28.325 50.9317 26.7528C39.6985 25.1806 31.0237 17.5502 29.6112 7.9963L28.8906 3.12295ZM27.2746 7.90166L28.4429 0L29.3384 2.5582e-08L30.5066 7.90165C31.8704 17.1259 40.2502 24.492 51.0988 26.0028L53.7812 26.3764L53.7813 27.1293L51.0988 27.5028C40.2502 29.0137 31.8705 36.3797 30.5066 45.604L29.3384 53.5056H28.4429L27.2746 45.604C25.9108 36.3797 17.5311 29.0137 6.68244 27.5028L4 27.1293L4 26.3764L6.68245 26.0028C17.5311 24.492 25.9108 17.1259 27.2746 7.90166Z" fill="#692C0F"/>
<path fill-rule="evenodd" clip-rule="evenodd" d="M28.8906 3.12295L28.1701 7.9963C26.7575 17.5502 18.0828 25.1806 6.8496 26.7528C18.0828 28.325 26.7575 35.9554 28.1701 45.5093L28.8906 50.3827L29.6112 45.5093C31.0237 35.9554 39.6984 28.325 50.9317 26.7528C39.6985 25.1806 31.0237 17.5502 29.6112 7.9963L28.8906 3.12295ZM27.2746 7.90166L28.4429 0L29.3384 2.5582e-08L30.5066 7.90165C31.8704 17.1259 40.2502 24.492 51.0988 26.0028L53.7812 26.3764L53.7813 27.1293L51.0988 27.5028C40.2502 29.0137 31.8705 36.3797 30.5066 45.604L29.3384 53.5056H28.4429L27.2746 45.604C25.9108 36.3797 17.5311 29.0137 6.68244 27.5028L4 27.1293L4 26.3764L6.68245 26.0028C17.5311 24.492 25.9108 17.1259 27.2746 7.90166Z" fill="black" fill-opacity="0.3"/>
<path fill-rule="evenodd" clip-rule="evenodd" d="M16.6797 41.9388C21.3991 39.4388 27.2841 35.3948 33.198 30.3947C39.1118 25.3945 43.8949 20.4188 46.8516 16.4285C48.334 14.4281 49.33 12.7115 49.7947 11.3854C50.0271 10.7219 50.1125 10.1951 50.0856 9.8001C50.0591 9.41133 49.9297 9.20185 49.7893 9.08314C49.6489 8.96443 49.4011 8.85499 48.9413 8.83261C48.4741 8.80987 47.851 8.88201 47.0663 9.07858C45.4978 9.47145 43.4676 10.3136 41.1016 11.5669C36.3821 14.0668 30.4971 18.1109 24.5833 23.111C18.6694 28.1111 13.8864 33.0868 10.9296 37.0771C9.44727 39.0776 8.45125 40.7941 7.98659 42.1202C7.7541 42.7838 7.66878 43.3105 7.69568 43.7056C7.72215 44.0943 7.85158 44.3038 7.99198 44.4225C8.13239 44.5412 8.38015 44.6507 8.83996 44.673C9.30717 44.6958 9.9302 44.6236 10.715 44.4271C12.2834 44.0342 14.3137 43.1921 16.6797 41.9388ZM7.35386 44.9621C10.0852 47.2714 21.9417 40.9909 33.8361 30.9342C45.7305 20.8775 53.1587 10.8529 50.4274 8.54361C47.6961 6.2343 35.8396 12.5148 23.9451 22.5715C12.0507 32.6281 4.62255 42.6527 7.35386 44.9621Z" fill="#692C0F"/>
<path fill-rule="evenodd" clip-rule="evenodd" d="M16.6797 41.9388C21.3991 39.4388 27.2841 35.3948 33.198 30.3947C39.1118 25.3945 43.8949 20.4188 46.8516 16.4285C48.334 14.4281 49.33 12.7115 49.7947 11.3854C50.0271 10.7219 50.1125 10.1951 50.0856 9.8001C50.0591 9.41133 49.9297 9.20185 49.7893 9.08314C49.6489 8.96443 49.4011 8.85499 48.9413 8.83261C48.4741 8.80987 47.851 8.88201 47.0663 9.07858C45.4978 9.47145 43.4676 10.3136 41.1016 11.5669C36.3821 14.0668 30.4971 18.1109 24.5833 23.111C18.6694 28.1111 13.8864 33.0868 10.9296 37.0771C9.44727 39.0776 8.45125 40.7941 7.98659 42.1202C7.7541 42.7838 7.66878 43.3105 7.69568 43.7056C7.72215 44.0943 7.85158 44.3038 7.99198 44.4225C8.13239 44.5412 8.38015 44.6507 8.83996 44.673C9.30717 44.6958 9.9302 44.6236 10.715 44.4271C12.2834 44.0342 14.3137 43.1921 16.6797 41.9388ZM7.35386 44.9621C10.0852 47.2714 21.9417 40.9909 33.8361 30.9342C45.7305 20.8775 53.1587 10.8529 50.4274 8.54361C47.6961 6.2343 35.8396 12.5148 23.9451 22.5715C12.0507 32.6281 4.62255 42.6527 7.35386 44.9621Z" fill="black" fill-opacity="0.3"/>
<path fill-rule="evenodd" clip-rule="evenodd" d="M10.9296 16.4286C13.8864 20.4188 18.6694 25.3946 24.5833 30.3947C30.4971 35.3948 36.3821 39.4389 41.1016 41.9388C43.4676 43.1921 45.4978 44.0342 47.0663 44.4271C47.851 44.6237 48.4741 44.6958 48.9413 44.6731C49.4011 44.6507 49.6489 44.5413 49.7893 44.4225C49.9297 44.3038 50.0591 44.0944 50.0856 43.7056C50.1125 43.3106 50.0272 42.7838 49.7947 42.1203C49.33 40.7942 48.334 39.0776 46.8516 37.0771C43.8949 33.0869 39.1118 28.1111 33.198 23.111C27.2841 18.1109 21.3991 14.0668 16.6797 11.5669C14.3137 10.3136 12.2834 9.47147 10.715 9.0786C9.93021 8.88203 9.30717 8.80989 8.83997 8.83264C8.38015 8.85502 8.1324 8.96445 7.99199 9.08316C7.85158 9.20188 7.72215 9.41135 7.69568 9.80012C7.66878 10.1951 7.7541 10.7219 7.9866 11.3854C8.45126 12.7116 9.44728 14.4281 10.9296 16.4286ZM7.35386 8.54363C4.62255 10.8529 12.0507 20.8776 23.9451 30.9342C35.8396 40.9909 47.6961 47.2714 50.4274 44.9621C53.1587 42.6528 45.7305 32.6282 33.8361 22.5715C21.9417 12.5148 10.0852 6.23432 7.35386 8.54363Z" fill="#692C0F"/>
<path fill-rule="evenodd" clip-rule="evenodd" d="M10.9296 16.4286C13.8864 20.4188 18.6694 25.3946 24.5833 30.3947C30.4971 35.3948 36.3821 39.4389 41.1016 41.9388C43.4676 43.1921 45.4978 44.0342 47.0663 44.4271C47.851 44.6237 48.4741 44.6958 48.9413 44.6731C49.4011 44.6507 49.6489 44.5413 49.7893 44.4225C49.9297 44.3038 50.0591 44.0944 50.0856 43.7056C50.1125 43.3106 50.0272 42.7838 49.7947 42.1203C49.33 40.7942 48.334 39.0776 46.8516 37.0771C43.8949 33.0869 39.1118 28.1111 33.198 23.111C27.2841 18.1109 21.3991 14.0668 16.6797 11.5669C14.3137 10.3136 12.2834 9.47147 10.715 9.0786C9.93021 8.88203 9.30717 8.80989 8.83997 8.83264C8.38015 8.85502 8.1324 8.96445 7.99199 9.08316C7.85158 9.20188 7.72215 9.41135 7.69568 9.80012C7.66878 10.1951 7.7541 10.7219 7.9866 11.3854C8.45126 12.7116 9.44728 14.4281 10.9296 16.4286ZM7.35386 8.54363C4.62255 10.8529 12.0507 20.8776 23.9451 30.9342C35.8396 40.9909 47.6961 47.2714 50.4274 44.9621C53.1587 42.6528 45.7305 32.6282 33.8361 22.5715C21.9417 12.5148 10.0852 6.23432 7.35386 8.54363Z" fill="black" fill-opacity="0.3"/>
</g>
<defs>
<filter id="filter0_d_966_23" x="0" y="0" width="57.7812" height="61.5059" filterUnits="userSpaceOnUse" color-interpolation-filters="sRGB">
<feFlood flood-opacity="0" result="BackgroundImageFix"/>
<feColorMatrix in="SourceAlpha" type="matrix" values="0 0 0 0 0 0 0 0 0 0 0 0 0 0 0 0 0 0 127 0" result="hardAlpha"/>
<feOffset dy="4"/>
<feGaussianBlur stdDeviation="2"/>
<feComposite in2="hardAlpha" operator="out"/>
<feColorMatrix type="matrix" values="0 0 0 0 0 0 0 0 0 0 0 0 0 0 0 0 0 0 0.25 0"/>
<feBlend mode="normal" in2="BackgroundImageFix" result="effect1_dropShadow_966_23"/>
<feBlend mode="normal" in="SourceGraphic" in2="effect1_dropShadow_966_23" result="shape"/>
</filter>
</defs>
</svg>
